<mxfile host="app.diagrams.net" modified="2024-05-28T17:09:24.036Z" agent="Mozilla/5.0 (Windows NT 10.0; Win64; x64) AppleWebKit/537.36 (KHTML, like Gecko) Chrome/125.0.0.0 Safari/537.36" version="24.4.9" etag="ifACFOz2R0A0AJwI_kbb" type="github">
  <diagram name="Page-1" id="yqTVJM0ZdDI7TEmBfkkx">
    <mxGraphModel>
      <root>
        <mxCell id="0" />
        <mxCell id="1" parent="0" />
      </root>
    </mxGraphModel>
  </diagram>
</mxfile>
